<svg xmlns="http://www.w3.org/2000/svg"><style>:root svg:not(:target){display:none}</style><svg viewBox="0 0 32 12" fill="none" id="arrow_icon"><path stroke="#000" stroke-width="2" d="M0 6h26"></path><path d="m32 6-6.75 5.2v-10.4l6.75 5.2Z" fill="#000"></path></svg><svg viewBox="0 0 134 100" fill="none" id="cat-black-pro"><circle cx="69" cy="50" r="50" fill="#68B738"></circle><g clip-path="url(#cat-black-pro_0)"><path d="M123.12 25.76a15.2 15.2 0 0 1 4.5-4.6c1-.7 1.6-.7 2.2.6.8 1.9 1.5 3.9.9 6a2.29 2.29 0 0 0 .4 2.1c.6.8 1.1 1.6 1.6 2.3a6.27 6.27 0 0 1 .9 6.2 5.38 5.38 0 0 0-.2 3.1c.2.99.2 2 0 3a3.75 3.75 0 0 1-2.7 3.2 5.21 5.21 0 0 0-3.2 2 1.05 1.05 0 0 1-.9.5c-1.2.2-4.2-2.5-4.2-3.7v-.6c.1-3.6-.1-3.9-3.4-5.4a4.4 4.4 0 0 1-1.8-1.2c-.6-.8-1.4-.7-2.3-.4-.9.3-1.4.9-1.3 1.9.3 2.42.4 4.86.3 7.3 0 .27.07.55.2.8 3.1 4.5 4.3 9.8 5.8 14.9 1.2 3.9 3.4 6 7.4 6.3.64.05 1.27.15 1.9.3a4.16 4.16 0 0 1 3.4 3.2c.7 2.1.3 2.6-1.8 2.6h-6.5a3.24 3.24 0 0 1-2.3-.8 11.71 11.71 0 0 0-3.4-2 7.26 7.26 0 0 1-3.4-2.6 28.58 28.58 0 0 0-4-4.5c-2.8-2.9-5.8-5.7-8.4-8.7a11.38 11.38 0 0 1-3.2-7.6c0-.9-.2-1.3-1.2-.9-.3.19-.65.3-1 .3-2.8 0-4.2 1.7-5.2 4.2-.9 2.1-2.1 4.1-3.2 6.2a10.4 10.4 0 0 0-1 4.2c0 2.4.6 3.2 2.8 4 1.4.5 2.7 1 3.4 2.4.8 1.6.6 2-1.1 2.1h-6.8a1.88 1.88 0 0 1-1.9-1.1l-1.8-3a6.05 6.05 0 0 1-.7-5.4c.43-1.74.47-3.55.1-5.3a8.42 8.42 0 0 1 1.7-7c.6-.7.6-1-.4-1.2a50.07 50.07 0 0 1-11.87-4.13.1.1 0 0 1-.03-.07c-3.2-1.2-3.8-1-4.7 2.3-.8 2.8-1.6 5.6-2.2 8.5-.7 3.2.1 6.2 1.1 9.2.4 1.2 1.6 1.1 2.5 1.4 2 .6 3.7 1.4 4.5 3.5.7 1.6.6 1.8-1.1 1.8-1.7 0-3.4-.1-5.2 0a6.7 6.7 0 0 1-4.2-1.4c-4.8-3.2-6.2-8.1-6.6-13.4-.2-3.3-2-5.9-4.1-8.4-.4-.5-.8-.7-1.4-.3a44.32 44.32 0 0 1-6.7 3 26.71 26.71 0 0 0-12.2 8.8 10.63 10.63 0 0 0-2.2 5.1c-.3 1.8.2 2.6 2 3.1s2.7 1.5 2.9 3.4c.1.8-.2 1.2-1 1.2h-8.1a1.65 1.65 0 0 1-1.3-.8 8.56 8.56 0 0 1-1.9-5.5c-.05-3.46.25-6.91.9-10.3a6.3 6.3 0 0 1 3.4-4.8c5.9-2.8 9-8.1 11.8-13.6.6-1.1.1-1.3-.9-1.2-2.8.39-5.45 1.49-7.7 3.2a70.62 70.62 0 0 0-8.3 7.1 16.67 16.67 0 0 1-10.3 4.9c-7.3.4-10.7-3.7-10.4-10.3a9.67 9.67 0 0 1 2.4-6.1 4.25 4.25 0 0 1 4.5-1.5c1.5.4 1.9 1.2 1.3 2.7-.3.6-.7 1.1-1 1.7a7.5 7.5 0 0 0-1 2c-1.1 3 .4 5.1 3.5 5.4 3.3.3 6-1.1 8.5-3.1 3.01-2.41 5.7-5.2 8-8.3a20.79 20.79 0 0 1 14.4-8.1c2.3-.3 4.3-1.3 6.5-1.9a41.5 41.5 0 0 1 12.7-1.8 13 13 0 0 0 5.8-1.1c4.9-2 10-2 15.1-1 4 .8 8 1.8 11.9 2.8 2.32.43 4.7.36 7-.2a67.79 67.79 0 0 1 13.4-2c2.96-.15 5.91.44 8.6 1.7 2 .9 2 .9 1.5 2.8Z" fill="#000"></path></g><defs><clipPath id="cat-black-pro_0"><path fill="#fff" transform="translate(0 20)" d="M0 0h134v56h-134z"></path></clipPath></defs></svg><svg viewBox="0 0 100 106" fill="none" id="cat-black-slim"><circle cx="50" cy="56" r="50" fill="#68B738"></circle><g clip-path="url(#cat-black-slim_0)"><path d="M69.84 0h-.38a3.5 3.5 0 0 0-1.46 1.59c-.56 1.08-1 2.23-1.29 3.41a1.63 1.63 0 0 1-1.48 1.34 7.34 7.34 0 0 0-5.23 3.78 27.31 27.31 0 0 0-1.85 4c-1.42 3.68-2.51 7.48-3.85 11.19-.63 1.69-.66 1.69-2.56 1.69-2.27 0-2.11-.35-2.14 2.15 0 .79.24 1.19 1.08 1.15.26 0 .65-.13.75.21.1.34-.24.49-.44.69a9 9 0 0 1-4.33 2.44c-1.9.51-3.84.91-5.69 1.53-4.75 1.59-9.14 3.81-12.56 7.57a28 28 0 0 0-4.74 7.84c-3.67 8.64-5.45 17.74-6.83 26.93-.65 4.31-1.11 8.64-1.46 13-.18 2.14-.38 4.31-.38 6.49h33.33a2.1 2.1 0 0 0-.23-1.28 5 5 0 0 0-3.83-3.07c-.7-.16-.78-.37-.35-.92.7-.94 1.24-1.98 1.59-3.1 1.63-4.81 2.26-9.83 3.05-14.8a30 30 0 0 1 3.44-10.83 21.6 21.6 0 0 1 5.59-6.37c.83-.63.86-.63 1 .44.1.71.12 1.44.17 2.16.3 4.72.24 9.46-.18 14.18a61.67 61.67 0 0 0-.15 11c.4 4.25 1.16 8.47 2.27 12.59h13.3a5.41 5.41 0 0 0-4.24-4.44 9 9 0 0 0-3.76.2c-.6.14-.85 0-.9-.65a56.35 56.35 0 0 1 1-15.82c1.33-6 2.36-12.07 3.06-18.18a17.75 17.75 0 0 1 2.28-7c1.19-2.12 2.23-4.32 3.4-6.45a5.87 5.87 0 0 0 .42-5.19c-.27-.71-.53-1.43-.86-2.11-1-1.95-2-3.88-2.92-5.85-.49-1-.38-1.12.71-1.15 1.63 0 1.63 0 1.66-1.64v-.66c0-.69-.26-1.07-1-1h-1.52c-.69 0-.89-.29-.72-1a6.24 6.24 0 0 1 5.13-4.43 22 22 0 0 1 6.62.43 1 1 0 0 0 1.25-.64c.4-1 .84-2 1.29-3a1 1 0 0 0-.1-1.14c-3.2-4.06-6.67-7.85-11.4-10.28a1.49 1.49 0 0 1-.88-1.12 19.6 19.6 0 0 0-1.27-4.16 3.5 3.5 0 0 0-1.41-1.72Z" fill="#000"></path></g><defs><clipPath id="cat-black-slim_0"><path fill="#fff" transform="translate(15)" d="M0 0h70v97h-70z"></path></clipPath></defs></svg><svg viewBox="0 0 54 65" id="cat_icon"><g fill="none" stroke="#444" stroke-linecap="round" stroke-linejoin="round" stroke-width="2"><path d="M43.3 56.2c0-1-1.9-6.1 3.9-14.2s4.8-11.1 4.8-14.2"></path><path d="M31.3 34.6c7.2 6.8 12.1 17 12.1 23 0 9.7-9.3 5.4-21 5.4s-21.3 4.2-21.3-5.4c0-6.1 4.9-16.2 12.1-23"></path><path d="M28.2 35c8.7-1.8 15.1-7.4 15.1-14.1 0-2.9-2-7.2-2.8-8.8.9-1.7 1.5-9.2.1-10.1-1.5-.8-8.3 6.4-8.3 6.4-3.2-1.4-6-2.2-10.1-2.2s-7.9.8-11.1 2.2c0 0-5.6-7.1-7.1-6.2-1.4.8-1.1 7.9-.3 9.8-.8 1.6-2.7 6-2.7 8.9 0 6.7 6.4 12.3 15.1 14.1"></path></g></svg><svg viewBox="0 0 60 60" fill="none" id="clock_icon"><path d="M23.12 15c-1.07 0-1.07 1.58 0 1.58h6.67v1.6a13.21 13.21 0 0 0-12.23 13.3c0 4.02 1.75 7.64 4.52 10.07.48.43.54 1.18.1 1.64l-1.53 1.55c-.75.69.36 1.75 1.03 1l2-2.03c.36-.34.88-.43 1.32-.21a12.79 12.79 0 0 0 11.1.06c.43-.21.96-.13 1.3.21l1.95 1.97c.68.64 1.66-.31 1.04-1l-1.45-1.48c-.45-.45-.38-1.2.1-1.63a13.47 13.47 0 0 0 4.62-10.16 13.2 13.2 0 0 0-12.27-13.28v-1.6h6.67c1.06 0 1.06-1.59 0-1.59h-14.94Zm-4.12 16.47c0-6.53 5.2-11.82 11.6-11.82 6.41 0 11.6 5.3 11.6 11.82 0 6.55-5.19 11.85-11.6 11.85-6.4 0-11.6-5.3-11.6-11.85Zm10.8-8.09c0-1.1 1.66-1.1 1.66 0v8.63c0 .23-.09.44-.25.6a.86.86 0 0 1-.6.25.82.82 0 0 1-.57-.23.8.8 0 0 1-.24-.56v-8.69Zm-5 2.62c.31 0 .61-.12.83-.34a1.14 1.14 0 0 0-.82-1.96c-.3.02-.56.16-.75.37a1.14 1.14 0 0 0 .75 1.92Zm11.6 0c.31 0 .6-.12.82-.34a1.14 1.14 0 0 0-.82-1.96 1.14 1.14 0 0 0 0 2.29Zm-10.43 12.59c0 1.53-2.33 1.53-2.33 0s2.33-1.53 2.33 0Zm4.64 3.44a1.18 1.18 0 0 0 1.17-.68 1.14 1.14 0 0 0-.7-1.56 1.17 1.17 0 0 0-1.22.32 1.14 1.14 0 0 0 .75 1.92Zm-8.12-10.39a1.14 1.14 0 0 1-.69 1.17 1.17 1.17 0 0 1-1.57-.7 1.14 1.14 0 0 1 .32-1.2 1.17 1.17 0 0 1 1.94.73Zm17.39 1.15a1.17 1.17 0 0 0 1.17-.68 1.14 1.14 0 0 0-.7-1.55 1.17 1.17 0 0 0-1.22.32 1.14 1.14 0 0 0 .75 1.91Zm-2.32 5.8c0 1.53-2.32 1.53-2.32 0s2.32-1.53 2.32 0Z" fill="#fff"></path></svg><svg viewBox="0 0 80 80" fill="none" id="cup_icon"><path fill="#68B738" d="M0 0h80v80h-80z"></path><path d="M37.88 26c-1.64 0-2.9 1.36-2.9 3.08s1.26 3.08 2.9 3.08c1.63 0 2.9-1.36 2.9-3.08s-1.27-3.08-2.9-3.08Zm0 1.18c1 0 1.72.84 1.72 1.9 0 1-.8 1.9-1.73 1.9-1 0-1.72-.84-1.72-1.9 0-1 .78-1.9 1.73-1.9Zm-10.88 23.56c0 1.18.4 2.18 1.36 3 1 .84 2.17.77 2.17.77h19.04c.77 0 1.8-.38 2.62-1.45.85-1 .8-2.36.8-2.36v-17.21c0-.44-.12-.6-.75-.6-.64 0-.69.27-.69.59v17.22c-.02.3-.07 1.08-.74 1.72-.74.62-1.45.54-1.45.54s-18.13 0-19.03-.03a2.14 2.14 0 0 1-1.45-.9c-.51-.73-.41-1.63-.41-1.63v-17.22c0-.46-.24-.64-.73-.64s-.74.18-.74.58v17.62Zm16.31-16.31c-1.09.23-2.17.38-4.26 2.35-2.08 2-3.62 1.9-5.16 1.82-1.54-.1-3.17-1.54-3.45-1.9-.33-.36-.9-.12-1.08.11-.16.24-.16.64.1 1 1.27 1.18 2.45 2.08 4.72 2.26a7.5 7.5 0 0 0 5.89-2.26c1.45-1.45 2.17-1.72 3.26-1.9a6.3 6.3 0 0 1 5.08 1.26c1 1.1 1.26.78 1.54.48.54-.72-.23-1.27-1.1-1.9a7.24 7.24 0 0 0-5.52-1.28l-.02-.04Zm-9.06 7.16c-1.18 0-2.08 1-2.08 2.26 0 1.27.9 2.27 2.08 2.27 1.18 0 2.08-1 2.08-2.27s-.9-2.26-2.08-2.26Zm11.78.78c-1.54 0-2.8 1.36-2.8 2.99 0 1.63 1.26 2.99 2.8 2.99 1.54 0 2.81-1.36 2.81-3 0-1.62-1.27-2.98-2.8-2.98Zm0 1.45c.8 0 1.45.7 1.45 1.54a1.5 1.5 0 0 1-1.45 1.54c-.8 0-1.45-.7-1.45-1.54 0-.86.65-1.54 1.45-1.54Z" fill="#fff"></path></svg><svg viewBox="0 0 40 512" fill="none" id="curtain"><rect x="18" width="4" height="512" rx="2" fill="#666"></rect><rect x="1" y="237" width="38" height="38" rx="19" fill="#fff"></rect><rect x="1" y="237" width="38" height="38" rx="19" stroke="#666" stroke-width="2"></rect><path d="m16 247-8 9 8 9v-18Zm16 9-8-9v18l8-9Z" fill="#666"></path></svg><svg viewBox="0 0 60 60" fill="none" id="eat_icon"><path fill-rule="evenodd" clip-rule="evenodd" d="M36.12 15.08a1 1 0 0 1 1.09.21c.9.91 2.1 2.88 3.06 5.92a42.6 42.6 0 0 1 1.73 12.79 1 1 0 0 1-1 1h-3.5v9a1 1 0 1 1-2 0v-28a1 1 0 0 1 .62-.92Zm1.38 17.92h2.5a39.62 39.62 0 0 0-1.64-11.19 22.4 22.4 0 0 0-.86-2.3v13.49Zm-14-18a1 1 0 0 1 1 1v28a1 1 0 1 1-2 0v-28a1 1 0 0 1 1-1Z" fill="#fff"></path><path fill-rule="evenodd" clip-rule="evenodd" d="M19 15a1 1 0 0 1 1 1v5.5c0 .56.2 1.32.7 1.92.48.56 1.31 1.08 2.8 1.08a1 1 0 1 1 0 2 5.41 5.41 0 0 1-4.33-1.8 5.07 5.07 0 0 1-1.17-3.2v-5.5a1 1 0 0 1 1-1Z" fill="#fff"></path><path fill-rule="evenodd" clip-rule="evenodd" d="M28 15a1 1 0 0 0-1 1v5.5c0 .56-.2 1.32-.7 1.92-.48.56-1.31 1.08-2.8 1.08a1 1 0 0 0 0 2 5.4 5.4 0 0 0 4.33-1.8 5.07 5.07 0 0 0 1.17-3.2v-5.5a1 1 0 0 0-1-1Z" fill="#fff"></path></svg><svg viewBox="0 0 20 20" fill="none" id="email_icon"><path d="M1.5 8.5v8h17v-8m-17-5h17v2l-8.5 6-8.5-6v-2Z" stroke="#000" stroke-linecap="round" stroke-linejoin="round"></path></svg><svg fill="#444" stroke="#444" viewBox="0 0 512 512" id="facebook_icon"><path d="M362.1 102.4h41.07l2.2-102.4h-81.6c-42.94 0-124.11 21.85-124.1 102.86-.04.87-.98 19.45-.22 67.8h-92.82v91.03h93.87v250.31h110.93v-250.31h91.02v-91.02h-91.02v-23c0-17.46 14.46-45.27 50.68-45.27zm17.6 91.02v45.51h-91.02v250.31h-65.43v-250.3h-93.85v-45.52h93.26l-.24-12.03c-1.1-54.47-.02-77.39 0-78.18 0-79.16 97.23-80.45 101.37-80.45h58.35l-1.24 56.88h-18.78c-45.37 0-73.43 34.64-73.43 68.03v45.75h91.02z"></path></svg><svg viewBox="0 0 80 83" fill="none" id="gift_icon"><path d="M65.66 35.83h-51.27a3.27 3.27 0 0 1-3.26-3.26v-9.78c0-1.8 1.46-3.26 3.26-3.26h51.27c1.8 0 3.26 1.47 3.26 3.26v9.78c0 1.8-1.46 3.26-3.26 3.26Zm-51.27-13.8a.77.77 0 0 0-.76.76v9.78c0 .42.34.76.76.76h51.27c.42 0 .76-.34.76-.76v-9.78a.77.77 0 0 0-.76-.76h-51.27Z" fill="#fff"></path><path d="M58.5 69.3h-36.96a6.29 6.29 0 0 1-6.28-6.27v-28.45a1.25 1.25 0 0 1 2.5 0v28.45c0 2.08 1.7 3.78 3.78 3.78h36.97c2.08 0 3.78-1.7 3.78-3.78v-28.45a1.25 1.25 0 0 1 2.5 0v28.45a6.29 6.29 0 0 1-6.28 6.28Z" fill="#fff"></path><path d="M40.02 69.3c-.69 0-1.25-.55-1.25-1.24v-33.48a1.25 1.25 0 0 1 2.5 0v33.48c0 .69-.56 1.25-1.25 1.25Zm-15.6-47.27a8.08 8.08 0 0 1 7.69-14.2c5.96 3.23 9.18 12.24 9.31 12.62l-2.36.83c-.03-.08-3.03-8.48-8.14-11.25a5.58 5.58 0 0 0-5.3 9.8l-1.2 2.2Z" fill="#fff"></path><path d="m55.62 22.03-1.19-2.2a5.54 5.54 0 0 0 2.25-7.55 5.53 5.53 0 0 0-7.55-2.25c-5.1 2.77-8.12 11.17-8.15 11.25l-2.36-.83c.14-.38 3.36-9.39 9.32-12.62a8.02 8.02 0 0 1 6.14-.64c2.07.62 3.77 2 4.8 3.9a8.01 8.01 0 0 1 .64 6.14 8.03 8.03 0 0 1-3.9 4.8Zm7.92 30.54h-47.03a1.25 1.25 0 0 1 0-2.5h47.03a1.25 1.25 0 0 1 0 2.5Z" fill="#fff"></path></svg><svg viewBox="0 0 60 60" fill="none" id="leaf_icon"><g clip-path="url(#leaf_icon_0)"><path d="M42.84 16.77a.95.95 0 0 0-.9-.77h-.01c-4.94.03-16.95.92-21.8 8.38-2.51 3.88-2.73 8.91-.64 14.96l.07.13a25.93 25.93 0 0 0-1.04 3.32 1 1 0 0 0 .72 1.19l.2.02c.43 0 .81-.32.9-.79.03-.1 2.42-10.37 10.86-16.38.43-.3.55-.92.26-1.38a.9.9 0 0 0-1.3-.28c-4.79 3.4-7.74 8-9.47 11.65-1.24-4.57-.92-8.37.99-11.3 3.74-5.77 12.62-7.16 17.98-7.45-1.15 1.8-2.41 5.1-2.41 10.93 0 3.12-.83 5.52-2.47 7.14-2.62 2.6-6.88 2.83-10 2.58-.51-.04-.96.38-1 .93-.04.55.35 1.03.86 1.07.63.05 1.3.08 1.98.08 3.18 0 6.87-.66 9.43-3.2 2.04-2 3.07-4.9 3.07-8.6 0-9.1 3.22-11.1 3.23-11.1.4-.21.6-.68.5-1.13Z" fill="#fff"></path></g><defs><clipPath id="leaf_icon_0"><path fill="#fff" transform="translate(15 14)" d="M0 0h30v32h-30z"></path></clipPath></defs></svg><svg viewBox="0 0 128 24" fill="none" id="logo-footer"><g clip-path="url(#logo-footer_0)" fill="#111"><path d="M1.62 21.96a9.43 9.43 0 0 1-1.6-5.72v-8.48a9.56 9.56 0 0 1 1.5-5.82c1.1-1.33 2.8-1.94 5.31-1.94 2.5 0 4.1.61 5.1 1.74a7.43 7.43 0 0 1 1.51 5v2.04h-4.9v-2.35a5.4 5.4 0 0 0-.3-2.04 1.42 1.42 0 0 0-1.4-.82c-.71 0-1.21.2-1.41.72a6.72 6.72 0 0 0-.3 2.25v10.92a4.3 4.3 0 0 0 .4 2.15c.2.5.7.71 1.4.71s1.1-.2 1.3-.71c.23-.7.33-1.42.3-2.15v-2.45h4.91v2.05a7.92 7.92 0 0 1-1.5 5.1c-1 1.23-2.7 1.84-5.1 1.84-2.41-.1-4.22-.71-5.22-2.04Zm17.73-21.66h5.7l4.21 23.3h-4.6l-.8-4.91h-3.31l-.8 4.9h-4.7l4.3-23.28Zm4.1 15.33-1.2-9.1-1.2 9.1h2.4Zm9.32-11.44h-3.4v-3.88h11.9v3.77h-3.4v19.51h-5.1v-19.4Zm17.63-3.89h8.8v2.46h-5.7v7.66h4.6v2.35h-4.6v8.57h5.7v2.35h-8.9v-23.38h.1Zm11.4 0h2.21l6.51 15.43v-15.42h2.6v23.28h-2l-6.6-15.93v15.93h-2.71v-23.28Zm14.33 0h8.81v2.46h-5.7v7.66h4.6v2.35h-4.6v8.57h5.7v2.35h-8.81v-23.38Zm11.41 0h4.61a7.9 7.9 0 0 1 5.1 1.44c1.1.92 1.6 2.55 1.6 4.7 0 2.96-.9 4.8-2.8 5.4l3.21 11.65h-3.1l-3-10.93h-2.51v10.93h-3.2v-23.18h.1Zm4.41 10.01c1.03.1 2.06-.2 2.9-.81.6-.51.9-1.53.9-3.07a6.72 6.72 0 0 0-.3-2.24 2.58 2.58 0 0 0-1.1-1.23 4.49 4.49 0 0 0-2.2-.4h-1.4v7.65h1.2v.1Zm10.91 11.55a10.49 10.49 0 0 1-1.4-5.93v-7.76a17 17 0 0 1 .5-4.4c.34-1.06 1-2 1.9-2.65 1.12-.67 2.41-1 3.71-.92 2.1 0 3.6.51 4.5 1.64a7.93 7.93 0 0 1 1.41 5.1v.82h-3v-.71c0-.86-.07-1.71-.2-2.56a2.05 2.05 0 0 0-.8-1.32 3.05 3.05 0 0 0-1.9-.51 2.96 2.96 0 0 0-2.01.6 2.3 2.3 0 0 0-.8 1.64c-.13.92-.2 1.84-.2 2.76v8.68a9.43 9.43 0 0 0 .6 3.88c.4.82 1.2 1.12 2.4 1.12a2.38 2.38 0 0 0 2.4-1.22c.53-1.3.77-2.69.7-4.09v-1.63h-2.9v-2.35h5.81v11.54h-2l-.3-2.65a4.17 4.17 0 0 1-1.56 2.2c-.74.53-1.64.8-2.55.76a4.92 4.92 0 0 1-4.3-2.04Zm17.13-6.44-4.9-15.01h3l3.5 11.23 3.4-11.23h3.01l-4.9 15.01v8.17h-3.01v-8.17h-.1Z"></path></g><defs><clipPath id="logo-footer_0"><path fill="#fff" d="M0 0h128v24h-128z"></path></clipPath></defs></svg><svg viewBox="0 0 27 35" fill="none" id="logo-html_icon"><g clip-path="url(#logo-html_icon_0)"><path d="m13.64.52-.14-.02-13.5 1.4v24.61l13.5 7.99 13.5-7.99v-24.6l-13.36-1.4Zm11.6 25-11.74 6.94-11.73-6.94v-10.1l11.68 6.93.02 1.25-8.02-4.75v1.23l8.04 4.8.02 1.3-8.05-4.76v1.22l8.04 4.81 8.12-4.83v-5.21l3.62-2.15v10.26Zm0-11.57-3.23 1.88-1.48.88-7.06-4.19-.01 1.23 6.04 3.57-.06.03-.13.07-.86.5-4.98-2.95-.01 1.22 3.93 2.33-.93.61-.02.01-2.97-1.74-.01 1.23 1.94 1.13-1.98 1.19-11.62-6.87 11.63-6.96 11.8 6.83Zm0-1.22-11.8-6.92-11.67 6.91v-9.23l11.73-1.23 11.73 1.23v9.24Z" fill="#666"></path></g><defs><clipPath id="logo-html_icon_0"><path fill="#fff" transform="translate(0 .5)" d="M0 0h27v34h-27z"></path></clipPath></defs></svg><svg viewBox="0 0 20 20" fill="none" id="phone_icon"><path d="M10 10h8.5m0 0-2.5-2.5m2.5 2.5-2.5 2.5m-7.5-10v5h-3v5h3v5h-2.5c-1.5 0-2.5-1-2.5-2.5v-10c0-1.5 1-2.5 2.5-2.5h2.5Z" stroke="#000" stroke-linecap="round" stroke-linejoin="round"></path></svg><svg viewBox="0 0 60 60" fill="none" id="plus_icon"><path stroke="#D3D3D3" stroke-width="2" d="M31 0v60m29-29h-60"></path></svg><svg viewBox="0 0 60 60" fill="none" id="powder_icon"><path d="M28.38 16c-1.64 0-2.9 1.36-2.9 3.08s1.26 3.08 2.9 3.08c1.63 0 2.9-1.36 2.9-3.08s-1.27-3.08-2.9-3.08Zm0 1.18c1 0 1.72.84 1.72 1.9 0 1-.8 1.9-1.73 1.9-1 0-1.72-.84-1.72-1.9 0-1 .78-1.9 1.73-1.9Zm-10.88 23.56c0 1.18.4 2.18 1.36 3 1 .84 2.17.77 2.17.77h19.04c.77 0 1.8-.38 2.62-1.45.85-1 .8-2.36.8-2.36v-17.21c0-.44-.12-.6-.75-.6-.64 0-.69.27-.69.59v17.22c-.02.3-.07 1.08-.74 1.72-.74.62-1.45.54-1.45.54s-18.13 0-19.03-.03a2.14 2.14 0 0 1-1.45-.9c-.51-.73-.41-1.63-.41-1.63v-17.22c0-.46-.24-.64-.73-.64s-.74.18-.74.58v17.62Zm16.31-16.31c-1.09.23-2.17.38-4.26 2.35-2.08 2-3.62 1.9-5.16 1.82-1.54-.1-3.17-1.54-3.45-1.9-.33-.36-.9-.12-1.08.11-.16.24-.16.64.1 1 1.27 1.18 2.45 2.08 4.72 2.26a7.5 7.5 0 0 0 5.89-2.26c1.45-1.45 2.17-1.72 3.26-1.9a6.3 6.3 0 0 1 5.08 1.26c1 1.1 1.26.78 1.54.48.54-.72-.23-1.27-1.1-1.9a7.24 7.24 0 0 0-5.52-1.28l-.02-.04Zm-9.06 7.16c-1.18 0-2.08 1-2.08 2.26 0 1.27.9 2.27 2.08 2.27 1.18 0 2.08-1 2.08-2.27s-.9-2.26-2.08-2.26Zm11.78.78c-1.54 0-2.8 1.36-2.8 2.99 0 1.63 1.26 2.99 2.8 2.99 1.54 0 2.81-1.36 2.81-3 0-1.62-1.27-2.98-2.8-2.98Zm0 1.45c.8 0 1.45.7 1.45 1.54a1.5 1.5 0 0 1-1.45 1.54c-.8 0-1.45-.7-1.45-1.54 0-.86.65-1.54 1.45-1.54Z" fill="#fff"></path></svg><svg viewBox="0 0 28 22" fill="none" id="telegram_icon"><path fill-rule="evenodd" clip-rule="evenodd" d="M23.46 3.15c.18.15.27.38.23.61l-2.63 15.76a.66.66 0 0 1-1.01.44l-7.88-5.25a.66.66 0 0 1-.15-.96l2.61-3.26-4.36 2.9a.66.66 0 0 1-.65.05l-5.26-2.63a.66.66 0 0 1 .08-1.2l18.38-6.57a.66.66 0 0 1 .64.11Zm-17.13 7.17 3.53 1.77 7.56-5.04a.66.66 0 0 1 .88.96l-4.8 6 6.43 4.3 2.28-13.66-15.88 5.67Z" fill="#666"></path></svg><svg viewBox="0 0 40 40" fill="none" id="thumb_icon"><path d="m16 11-8 9 8 9v-18Zm16 9-8-9v18l8-9Z" fill="#666"></path></svg><svg viewBox="0 0 28 22" fill="none" id="vkontakte_icon"><path d="M1 5.34c0-.86.52-1.32 1.55-1.38l3.97.02c.26 0 .44.13.53.38.4 1.26.86 2.34 1.37 3.25.5.92 1.17 1.97 1.99 3.16.07.15.18.23.34.23.13 0 .22-.06.3-.18l.07-.28.03-4.35c0-.3-.07-.5-.23-.6-.15-.1-.43-.18-.83-.23-.32-.05-.48-.23-.48-.55 0-.07 0-.12.02-.15.38-1.09 1.44-1.63 3.2-1.63l1.5-.03c.67 0 1.23.16 1.67.48.44.32.67.82.67 1.5v5.72c.12.08.24.12.34.12.27 0 .5-.15.7-.45 1.95-2.58 3-4.31 3.17-5.18a.3.3 0 0 1 .05-.13c.12-.25.33-.47.61-.65.29-.19.53-.31.75-.38a.55.55 0 0 1 .24-.05h4.13l.26.03c.36 0 .63.16.83.47.07.1.12.21.15.33a2.4 2.4 0 0 1 .06.55v.18a6.11 6.11 0 0 1-.94 2.2 23.4 23.4 0 0 1-1.93 2.53c-.79.9-1.27 1.5-1.47 1.78a.93.93 0 0 0-.24.56c0 .13.07.28.21.45l3.9 4.63c.2.26.31.56.31.88 0 .38-.16.7-.48.95-.32.25-.7.4-1.14.43l-.46.02h-4.04c-.02 0-.06 0-.11.02a.86.86 0 0 1-.1.01c-.4 0-.76-.16-1.1-.48-.12-.13-.96-1.12-2.5-2.97a1.39 1.39 0 0 0-.38-.32 38.47 38.47 0 0 0-.53 2.24l-.08.42a1.4 1.4 0 0 1-1.12 1.06l-.37.02h-2.61c-1.48 0-2.95-.63-4.41-1.9a19.3 19.3 0 0 1-3.96-4.95 47.51 47.51 0 0 1-3.28-7.05 1.92 1.92 0 0 1-.13-.73Zm16.01 6.51c-.37 0-.7-.1-1.01-.29a.9.9 0 0 1-.45-.79v-5.78c0-.34-.1-.58-.27-.72-.18-.14-.49-.21-.93-.21l-1.52.05c-.76 0-1.34.12-1.73.37.78.36 1.17.93 1.17 1.71v4.43a1.5 1.5 0 0 1-.53 1.04 1.6 1.6 0 0 1-1.07.42c-.53 0-.94-.24-1.22-.73a26.16 26.16 0 0 1-3.1-5.63l-.23-.66-3.55-.02c-.23 0-.36.01-.38.03-.03.03-.04.1-.04.22 0 .15.01.3.05.48l.56 1.4c1.49 3.64 3.11 6.51 4.86 8.6 1.75 2.1 3.47 3.15 5.16 3.15h2.66c.1 0 .19-.03.24-.09.05-.06.1-.17.13-.34l.06-.25.5-2.21c.15-.3.27-.5.38-.6.2-.2.42-.28.69-.28.43 0 .86.24 1.3.73l2.27 2.71c.14.22.3.33.45.33h4.4c.53 0 .8-.13.8-.38a.47.47 0 0 0-.08-.25l-3.87-4.55c-.3-.35-.45-.73-.45-1.13 0-.4.14-.8.43-1.16.23-.34.68-.9 1.34-1.67.67-.78 1.25-1.51 1.75-2.19.5-.68.82-1.3.98-1.85l.08-.33a.37.37 0 0 1-.02-.16.54.54 0 0 0-.03-.19h-4.18c-.27.1-.48.25-.64.45l-.16.48c-.45 1.16-1.6 2.94-3.5 5.36-.36.33-.8.5-1.3.5Z" fill="#666"></path></svg><svg viewBox="0 0 28 22" fill="none" id="youtube_icon"><path d="m17.85 10.8-5.24-3.5a.65.65 0 0 0-1.01.55v6.98a.65.65 0 0 0 1.01.54l5.24-3.49a.65.65 0 0 0 0-1.09Zm-4.94 2.8v-4.53l3.4 2.27-3.4 2.27Zm12.48-8.56a2.4 2.4 0 0 0-1.45-1.63c-3.72-1.43-9.69-1.41-9.94-1.41s-6.22-.02-9.94 1.4a2.4 2.4 0 0 0-1.45 1.64 25.32 25.32 0 0 0-.61 6.3c0 3.26.33 5.22.61 6.3a2.4 2.4 0 0 0 1.45 1.63c3.72 1.43 9.69 1.4 9.94 1.4h.08c.75 0 6.31-.04 9.86-1.4a2.4 2.4 0 0 0 1.45-1.64c.28-1.07.61-3.03.61-6.3 0-3.25-.33-5.22-.61-6.29Zm-1.27 12.27a1.1 1.1 0 0 1-.65.74c-3.5 1.34-9.4 1.32-9.47 1.32-.07 0-5.98.02-9.47-1.32a1.09 1.09 0 0 1-.65-.74c-.27-1-.57-2.85-.57-5.97 0-3.12.3-4.97.57-5.97a1.1 1.1 0 0 1 .65-.74c3.5-1.34 9.4-1.32 9.47-1.32.07 0 5.98-.02 9.47 1.32a1.1 1.1 0 0 1 .65.74c.27 1 .57 2.85.57 5.97 0 3.12-.3 4.96-.57 5.97Z" fill="#666"></path></svg></svg>