<svg xmlns="http://www.w3.org/2000/svg" xml:space="preserve" viewBox="0 0 54 65"><g fill="none" stroke="#444" stroke-linecap="round" stroke-linejoin="round" stroke-width="2"><path d="M43.3 56.2c0-1-1.9-6.1 3.9-14.2s4.8-11.1 4.8-14.2"/><path d="M31.3 34.6c7.2 6.8 12.1 17 12.1 23 0 9.7-9.3 5.4-21 5.4s-21.3 4.2-21.3-5.4c0-6.1 4.9-16.2 12.1-23"/><path d="M28.2 35c8.7-1.8 15.1-7.4 15.1-14.1 0-2.9-2-7.2-2.8-8.8.9-1.7 1.5-9.2.1-10.1-1.5-.8-8.3 6.4-8.3 6.4-3.2-1.4-6-2.2-10.1-2.2s-7.9.8-11.1 2.2c0 0-5.6-7.1-7.1-6.2-1.4.8-1.1 7.9-.3 9.8-.8 1.6-2.7 6-2.7 8.9 0 6.7 6.4 12.3 15.1 14.1"/></g></svg>