<svg xmlns="http://www.w3.org/2000/svg" xml:space="preserve" fill="#444" stroke="#444" viewBox="0 0 512 512"><path d="M362.1 102.4h41.07l2.2-102.4h-81.6c-42.94 0-124.11 21.85-124.1 102.86-.04.87-.98 19.45-.22 67.8h-92.82v91.03h93.87v250.31h110.93v-250.31h91.02v-91.02h-91.02v-23c0-17.46 14.46-45.27 50.68-45.27zm17.6 91.02v45.51h-91.02v250.31h-65.43v-250.3h-93.85v-45.52h93.26l-.24-12.03c-1.1-54.47-.02-77.39 0-78.18 0-79.16 97.23-80.45 101.37-80.45h58.35l-1.24 56.88h-18.78c-45.37 0-73.43 34.64-73.43 68.03v45.75h91.02z"/></svg>